# Low poly sun lounger generated for Unity
mtllib SunLounger_LowPoly.mtl
v -1.87500 0.61000 -0.77500
v 3.37500 0.61000 -0.77500
v 3.37500 0.61000 0.77500
v -1.87500 0.61000 0.77500
v -1.87500 0.83000 -0.77500
v 3.37500 0.83000 -0.77500
v 3.37500 0.83000 0.77500
v -1.87500 0.83000 0.77500
v 3.36000 0.65000 -0.89000
v 3.54000 0.65000 -0.89000
v 3.54000 0.65000 0.89000
v 3.36000 0.65000 0.89000
v 3.36000 0.99000 -0.89000
v 3.54000 0.99000 -0.89000
v 3.54000 0.99000 0.89000
v 3.36000 0.99000 0.89000
v -2.54000 0.65000 -0.89000
v -2.36000 0.65000 -0.89000
v -2.36000 0.65000 0.89000
v -2.54000 0.65000 0.89000
v -2.54000 0.99000 -0.89000
v -2.36000 0.99000 -0.89000
v -2.36000 0.99000 0.89000
v -2.54000 0.99000 0.89000
v -2.32500 0.68000 -0.93000
v 3.42500 0.68000 -0.93000
v 3.42500 0.68000 -0.79000
v -2.32500 0.68000 -0.79000
v -2.32500 1.00000 -0.93000
v 3.42500 1.00000 -0.93000
v 3.42500 1.00000 -0.79000
v -2.32500 1.00000 -0.79000
v -2.32500 0.68000 0.79000
v 3.42500 0.68000 0.79000
v 3.42500 0.68000 0.93000
v -2.32500 0.68000 0.93000
v -2.32500 1.00000 0.79000
v 3.42500 1.00000 0.79000
v 3.42500 1.00000 0.93000
v -2.32500 1.00000 0.93000
v -1.77750 0.95250 -0.71500
v -1.72250 0.95250 -0.71500
v -1.72250 0.95250 0.71500
v -1.77750 0.95250 0.71500
v -1.77750 1.02750 -0.71500
v -1.72250 1.02750 -0.71500
v -1.72250 1.02750 0.71500
v -1.77750 1.02750 0.71500
v -1.48750 0.95250 -0.71500
v -1.43250 0.95250 -0.71500
v -1.43250 0.95250 0.71500
v -1.48750 0.95250 0.71500
v -1.48750 1.02750 -0.71500
v -1.43250 1.02750 -0.71500
v -1.43250 1.02750 0.71500
v -1.48750 1.02750 0.71500
v -1.19750 0.95250 -0.71500
v -1.14250 0.95250 -0.71500
v -1.14250 0.95250 0.71500
v -1.19750 0.95250 0.71500
v -1.19750 1.02750 -0.71500
v -1.14250 1.02750 -0.71500
v -1.14250 1.02750 0.71500
v -1.19750 1.02750 0.71500
v -0.90750 0.95250 -0.71500
v -0.85250 0.95250 -0.71500
v -0.85250 0.95250 0.71500
v -0.90750 0.95250 0.71500
v -0.90750 1.02750 -0.71500
v -0.85250 1.02750 -0.71500
v -0.85250 1.02750 0.71500
v -0.90750 1.02750 0.71500
v -0.61750 0.95250 -0.71500
v -0.56250 0.95250 -0.71500
v -0.56250 0.95250 0.71500
v -0.61750 0.95250 0.71500
v -0.61750 1.02750 -0.71500
v -0.56250 1.02750 -0.71500
v -0.56250 1.02750 0.71500
v -0.61750 1.02750 0.71500
v -0.32750 0.95250 -0.71500
v -0.27250 0.95250 -0.71500
v -0.27250 0.95250 0.71500
v -0.32750 0.95250 0.71500
v -0.32750 1.02750 -0.71500
v -0.27250 1.02750 -0.71500
v -0.27250 1.02750 0.71500
v -0.32750 1.02750 0.71500
v -0.03750 0.95250 -0.71500
v 0.01750 0.95250 -0.71500
v 0.01750 0.95250 0.71500
v -0.03750 0.95250 0.71500
v -0.03750 1.02750 -0.71500
v 0.01750 1.02750 -0.71500
v 0.01750 1.02750 0.71500
v -0.03750 1.02750 0.71500
v 0.25250 0.95250 -0.71500
v 0.30750 0.95250 -0.71500
v 0.30750 0.95250 0.71500
v 0.25250 0.95250 0.71500
v 0.25250 1.02750 -0.71500
v 0.30750 1.02750 -0.71500
v 0.30750 1.02750 0.71500
v 0.25250 1.02750 0.71500
v 0.54250 0.95250 -0.71500
v 0.59750 0.95250 -0.71500
v 0.59750 0.95250 0.71500
v 0.54250 0.95250 0.71500
v 0.54250 1.02750 -0.71500
v 0.59750 1.02750 -0.71500
v 0.59750 1.02750 0.71500
v 0.54250 1.02750 0.71500
v 0.83250 0.95250 -0.71500
v 0.88750 0.95250 -0.71500
v 0.88750 0.95250 0.71500
v 0.83250 0.95250 0.71500
v 0.83250 1.02750 -0.71500
v 0.88750 1.02750 -0.71500
v 0.88750 1.02750 0.71500
v 0.83250 1.02750 0.71500
v 1.12250 0.95250 -0.71500
v 1.17750 0.95250 -0.71500
v 1.17750 0.95250 0.71500
v 1.12250 0.95250 0.71500
v 1.12250 1.02750 -0.71500
v 1.17750 1.02750 -0.71500
v 1.17750 1.02750 0.71500
v 1.12250 1.02750 0.71500
v 1.41250 0.95250 -0.71500
v 1.46750 0.95250 -0.71500
v 1.46750 0.95250 0.71500
v 1.41250 0.95250 0.71500
v 1.41250 1.02750 -0.71500
v 1.46750 1.02750 -0.71500
v 1.46750 1.02750 0.71500
v 1.41250 1.02750 0.71500
v 1.70250 0.95250 -0.71500
v 1.75750 0.95250 -0.71500
v 1.75750 0.95250 0.71500
v 1.70250 0.95250 0.71500
v 1.70250 1.02750 -0.71500
v 1.75750 1.02750 -0.71500
v 1.75750 1.02750 0.71500
v 1.70250 1.02750 0.71500
v 1.99250 0.95250 -0.71500
v 2.04750 0.95250 -0.71500
v 2.04750 0.95250 0.71500
v 1.99250 0.95250 0.71500
v 1.99250 1.02750 -0.71500
v 2.04750 1.02750 -0.71500
v 2.04750 1.02750 0.71500
v 1.99250 1.02750 0.71500
v 2.28250 0.95250 -0.71500
v 2.33750 0.95250 -0.71500
v 2.33750 0.95250 0.71500
v 2.28250 0.95250 0.71500
v 2.28250 1.02750 -0.71500
v 2.33750 1.02750 -0.71500
v 2.33750 1.02750 0.71500
v 2.28250 1.02750 0.71500
v 2.57250 0.95250 -0.71500
v 2.62750 0.95250 -0.71500
v 2.62750 0.95250 0.71500
v 2.57250 0.95250 0.71500
v 2.57250 1.02750 -0.71500
v 2.62750 1.02750 -0.71500
v 2.62750 1.02750 0.71500
v 2.57250 1.02750 0.71500
v 2.86250 0.95250 -0.71500
v 2.91750 0.95250 -0.71500
v 2.91750 0.95250 0.71500
v 2.86250 0.95250 0.71500
v 2.86250 1.02750 -0.71500
v 2.91750 1.02750 -0.71500
v 2.91750 1.02750 0.71500
v 2.86250 1.02750 0.71500
v -3.05985 2.20614 -0.75000
v -1.79775 0.59072 -0.75000
v -1.79775 0.59072 0.75000
v -3.05985 2.20614 0.75000
v -2.90225 2.32928 -0.75000
v -1.64015 0.71386 -0.75000
v -1.64015 0.71386 0.75000
v -2.90225 2.32928 0.75000
v -3.10640 2.23323 -0.84500
v -1.78273 0.53901 -0.84500
v -1.78273 0.53901 -0.71500
v -3.10640 2.23323 -0.71500
v -2.91727 2.38099 -0.84500
v -1.59360 0.68677 -0.84500
v -1.59360 0.68677 -0.71500
v -2.91727 2.38099 -0.71500
v -3.10640 2.23323 0.71500
v -1.78273 0.53901 0.71500
v -1.78273 0.53901 0.84500
v -3.10640 2.23323 0.84500
v -2.91727 2.38099 0.71500
v -1.59360 0.68677 0.71500
v -1.59360 0.68677 0.84500
v -2.91727 2.38099 0.84500
v -3.15593 2.27532 -0.77500
v -3.05743 2.14924 -0.77500
v -3.05743 2.14924 0.77500
v -3.15593 2.27532 0.77500
v -2.98257 2.41076 -0.77500
v -2.88407 2.28468 -0.77500
v -2.88407 2.28468 0.77500
v -2.98257 2.41076 0.77500
v -1.81593 0.65532 -0.77500
v -1.71743 0.52924 -0.77500
v -1.71743 0.52924 0.77500
v -1.81593 0.65532 0.77500
v -1.64257 0.79076 -0.77500
v -1.54407 0.66468 -0.77500
v -1.54407 0.66468 0.77500
v -1.64257 0.79076 0.77500
v -2.87165 2.07083 -0.65000
v -2.84394 2.03537 -0.65000
v -2.84394 2.03537 0.65000
v -2.87165 2.07083 0.65000
v -2.81649 2.11393 -0.65000
v -2.78878 2.07847 -0.65000
v -2.78878 2.07847 0.65000
v -2.81649 2.11393 0.65000
v -2.73620 1.89747 -0.65000
v -2.70850 1.86201 -0.65000
v -2.70850 1.86201 0.65000
v -2.73620 1.89747 0.65000
v -2.68104 1.94056 -0.65000
v -2.65334 1.90510 -0.65000
v -2.65334 1.90510 0.65000
v -2.68104 1.94056 0.65000
v -2.60076 1.72411 -0.65000
v -2.57305 1.68865 -0.65000
v -2.57305 1.68865 0.65000
v -2.60076 1.72411 0.65000
v -2.54560 1.76720 -0.65000
v -2.51789 1.73174 -0.65000
v -2.51789 1.73174 0.65000
v -2.54560 1.76720 0.65000
v -2.46531 1.55074 -0.65000
v -2.43761 1.51528 -0.65000
v -2.43761 1.51528 0.65000
v -2.46531 1.55074 0.65000
v -2.41015 1.59384 -0.65000
v -2.38245 1.55838 -0.65000
v -2.38245 1.55838 0.65000
v -2.41015 1.59384 0.65000
v -2.32987 1.37738 -0.65000
v -2.30216 1.34192 -0.65000
v -2.30216 1.34192 0.65000
v -2.32987 1.37738 0.65000
v -2.27471 1.42048 -0.65000
v -2.24700 1.38502 -0.65000
v -2.24700 1.38502 0.65000
v -2.27471 1.42048 0.65000
v -2.19442 1.20402 -0.65000
v -2.16672 1.16856 -0.65000
v -2.16672 1.16856 0.65000
v -2.19442 1.20402 0.65000
v -2.13926 1.24711 -0.65000
v -2.11156 1.21165 -0.65000
v -2.11156 1.21165 0.65000
v -2.13926 1.24711 0.65000
v -2.05898 1.03066 -0.65000
v -2.03127 0.99520 -0.65000
v -2.03127 0.99520 0.65000
v -2.05898 1.03066 0.65000
v -2.00381 1.07375 -0.65000
v -1.97611 1.03829 -0.65000
v -1.97611 1.03829 0.65000
v -2.00381 1.07375 0.65000
v -1.92353 0.85729 -0.65000
v -1.89583 0.82183 -0.65000
v -1.89583 0.82183 0.65000
v -1.92353 0.85729 0.65000
v -1.86837 0.90039 -0.65000
v -1.84066 0.86493 -0.65000
v -1.84066 0.86493 0.65000
v -1.86837 0.90039 0.65000
v -2.43500 -0.05000 -0.75500
v -2.26500 -0.05000 -0.75500
v -2.26500 -0.05000 -0.58500
v -2.43500 -0.05000 -0.58500
v -2.47000 0.63000 -0.78500
v -2.23000 0.63000 -0.78500
v -2.23000 0.63000 -0.55500
v -2.47000 0.63000 -0.55500
v -2.43500 -0.05000 0.58500
v -2.26500 -0.05000 0.58500
v -2.26500 -0.05000 0.75500
v -2.43500 -0.05000 0.75500
v -2.47000 0.63000 0.55500
v -2.23000 0.63000 0.55500
v -2.23000 0.63000 0.78500
v -2.47000 0.63000 0.78500
v 0.16500 -0.05000 -0.75500
v 0.33500 -0.05000 -0.75500
v 0.33500 -0.05000 -0.58500
v 0.16500 -0.05000 -0.58500
v 0.13000 0.63000 -0.78500
v 0.37000 0.63000 -0.78500
v 0.37000 0.63000 -0.55500
v 0.13000 0.63000 -0.55500
v 0.16500 -0.05000 0.58500
v 0.33500 -0.05000 0.58500
v 0.33500 -0.05000 0.75500
v 0.16500 -0.05000 0.75500
v 0.13000 0.63000 0.55500
v 0.37000 0.63000 0.55500
v 0.37000 0.63000 0.78500
v 0.13000 0.63000 0.78500
v 3.09500 -0.05000 -0.75500
v 3.26500 -0.05000 -0.75500
v 3.26500 -0.05000 -0.58500
v 3.09500 -0.05000 -0.58500
v 3.06000 0.63000 -0.78500
v 3.30000 0.63000 -0.78500
v 3.30000 0.63000 -0.55500
v 3.06000 0.63000 -0.55500
v 3.09500 -0.05000 0.58500
v 3.26500 -0.05000 0.58500
v 3.26500 -0.05000 0.75500
v 3.09500 -0.05000 0.75500
v 3.06000 0.63000 0.55500
v 3.30000 0.63000 0.55500
v 3.30000 0.63000 0.78500
v 3.06000 0.63000 0.78500
v -2.29282 1.38300 -0.72000
v -1.44032 0.46880 -0.72000
v -1.44032 0.46880 -0.62000
v -2.29282 1.38300 -0.62000
v -2.21968 1.45120 -0.72000
v -1.36718 0.53700 -0.72000
v -1.36718 0.53700 -0.62000
v -2.21968 1.45120 -0.62000
v -2.29282 1.38300 0.62000
v -1.44032 0.46880 0.62000
v -1.44032 0.46880 0.72000
v -2.29282 1.38300 0.72000
v -2.21968 1.45120 0.62000
v -1.36718 0.53700 0.62000
v -1.36718 0.53700 0.72000
v -2.21968 1.45120 0.72000
v -1.26000 0.62000 -0.77000
v -1.04000 0.62000 -0.77000
v -1.04000 0.62000 -0.67000
v -1.26000 0.62000 -0.67000
v -1.26000 0.72000 -0.77000
v -1.04000 0.72000 -0.77000
v -1.04000 0.72000 -0.67000
v -1.26000 0.72000 -0.67000
v -1.26000 0.62000 0.67000
v -1.04000 0.62000 0.67000
v -1.04000 0.62000 0.77000
v -1.26000 0.62000 0.77000
v -1.26000 0.72000 0.67000
v -1.04000 0.72000 0.67000
v -1.04000 0.72000 0.77000
v -1.26000 0.72000 0.77000
o main_deck
usemtl beige
f 1 2 3 4
f 5 8 7 6
f 1 5 6 2
f 2 6 7 3
f 3 7 8 4
f 4 8 5 1
o front_frame
usemtl beige
f 9 10 11 12
f 13 16 15 14
f 9 13 14 10
f 10 14 15 11
f 11 15 16 12
f 12 16 13 9
o rear_frame
usemtl beige
f 17 18 19 20
f 21 24 23 22
f 17 21 22 18
f 18 22 23 19
f 19 23 24 20
f 20 24 21 17
o left_side_frame
usemtl beige
f 25 26 27 28
f 29 32 31 30
f 25 29 30 26
f 26 30 31 27
f 27 31 32 28
f 28 32 29 25
o right_side_frame
usemtl beige
f 33 34 35 36
f 37 40 39 38
f 33 37 38 34
f 34 38 39 35
f 35 39 40 36
f 36 40 37 33
o seat_slat_01
usemtl slat_dark
f 41 42 43 44
f 45 48 47 46
f 41 45 46 42
f 42 46 47 43
f 43 47 48 44
f 44 48 45 41
o seat_slat_02
usemtl slat_dark
f 49 50 51 52
f 53 56 55 54
f 49 53 54 50
f 50 54 55 51
f 51 55 56 52
f 52 56 53 49
o seat_slat_03
usemtl slat_dark
f 57 58 59 60
f 61 64 63 62
f 57 61 62 58
f 58 62 63 59
f 59 63 64 60
f 60 64 61 57
o seat_slat_04
usemtl slat_dark
f 65 66 67 68
f 69 72 71 70
f 65 69 70 66
f 66 70 71 67
f 67 71 72 68
f 68 72 69 65
o seat_slat_05
usemtl slat_dark
f 73 74 75 76
f 77 80 79 78
f 73 77 78 74
f 74 78 79 75
f 75 79 80 76
f 76 80 77 73
o seat_slat_06
usemtl slat_dark
f 81 82 83 84
f 85 88 87 86
f 81 85 86 82
f 82 86 87 83
f 83 87 88 84
f 84 88 85 81
o seat_slat_07
usemtl slat_dark
f 89 90 91 92
f 93 96 95 94
f 89 93 94 90
f 90 94 95 91
f 91 95 96 92
f 92 96 93 89
o seat_slat_08
usemtl slat_dark
f 97 98 99 100
f 101 104 103 102
f 97 101 102 98
f 98 102 103 99
f 99 103 104 100
f 100 104 101 97
o seat_slat_09
usemtl slat_dark
f 105 106 107 108
f 109 112 111 110
f 105 109 110 106
f 106 110 111 107
f 107 111 112 108
f 108 112 109 105
o seat_slat_10
usemtl slat_dark
f 113 114 115 116
f 117 120 119 118
f 113 117 118 114
f 114 118 119 115
f 115 119 120 116
f 116 120 117 113
o seat_slat_11
usemtl slat_dark
f 121 122 123 124
f 125 128 127 126
f 121 125 126 122
f 122 126 127 123
f 123 127 128 124
f 124 128 125 121
o seat_slat_12
usemtl slat_dark
f 129 130 131 132
f 133 136 135 134
f 129 133 134 130
f 130 134 135 131
f 131 135 136 132
f 132 136 133 129
o seat_slat_13
usemtl slat_dark
f 137 138 139 140
f 141 144 143 142
f 137 141 142 138
f 138 142 143 139
f 139 143 144 140
f 140 144 141 137
o seat_slat_14
usemtl slat_dark
f 145 146 147 148
f 149 152 151 150
f 145 149 150 146
f 146 150 151 147
f 147 151 152 148
f 148 152 149 145
o seat_slat_15
usemtl slat_dark
f 153 154 155 156
f 157 160 159 158
f 153 157 158 154
f 154 158 159 155
f 155 159 160 156
f 156 160 157 153
o seat_slat_16
usemtl slat_dark
f 161 162 163 164
f 165 168 167 166
f 161 165 166 162
f 162 166 167 163
f 163 167 168 164
f 164 168 165 161
o seat_slat_17
usemtl slat_dark
f 169 170 171 172
f 173 176 175 174
f 169 173 174 170
f 170 174 175 171
f 171 175 176 172
f 172 176 173 169
o back_panel_base
usemtl beige
f 177 178 179 180
f 181 184 183 182
f 177 181 182 178
f 178 182 183 179
f 179 183 184 180
f 180 184 181 177
o back_left_rail
usemtl beige
f 185 186 187 188
f 189 192 191 190
f 185 189 190 186
f 186 190 191 187
f 187 191 192 188
f 188 192 189 185
o back_right_rail
usemtl beige
f 193 194 195 196
f 197 200 199 198
f 193 197 198 194
f 194 198 199 195
f 195 199 200 196
f 196 200 197 193
o back_top_rail
usemtl beige
f 201 202 203 204
f 205 208 207 206
f 201 205 206 202
f 202 206 207 203
f 203 207 208 204
f 204 208 205 201
o back_bottom_rail
usemtl beige
f 209 210 211 212
f 213 216 215 214
f 209 213 214 210
f 210 214 215 211
f 211 215 216 212
f 212 216 213 209
o back_slat_01
usemtl slat_dark
f 217 218 219 220
f 221 224 223 222
f 217 221 222 218
f 218 222 223 219
f 219 223 224 220
f 220 224 221 217
o back_slat_02
usemtl slat_dark
f 225 226 227 228
f 229 232 231 230
f 225 229 230 226
f 226 230 231 227
f 227 231 232 228
f 228 232 229 225
o back_slat_03
usemtl slat_dark
f 233 234 235 236
f 237 240 239 238
f 233 237 238 234
f 234 238 239 235
f 235 239 240 236
f 236 240 237 233
o back_slat_04
usemtl slat_dark
f 241 242 243 244
f 245 248 247 246
f 241 245 246 242
f 242 246 247 243
f 243 247 248 244
f 244 248 245 241
o back_slat_05
usemtl slat_dark
f 249 250 251 252
f 253 256 255 254
f 249 253 254 250
f 250 254 255 251
f 251 255 256 252
f 252 256 253 249
o back_slat_06
usemtl slat_dark
f 257 258 259 260
f 261 264 263 262
f 257 261 262 258
f 258 262 263 259
f 259 263 264 260
f 260 264 261 257
o back_slat_07
usemtl slat_dark
f 265 266 267 268
f 269 272 271 270
f 265 269 270 266
f 266 270 271 267
f 267 271 272 268
f 268 272 269 265
o back_slat_08
usemtl slat_dark
f 273 274 275 276
f 277 280 279 278
f 273 277 278 274
f 274 278 279 275
f 275 279 280 276
f 276 280 277 273
o rear_leg_left
usemtl beige
f 281 282 283 284
f 285 288 287 286
f 281 285 286 282
f 282 286 287 283
f 283 287 288 284
f 284 288 285 281
o rear_leg_right
usemtl beige
f 289 290 291 292
f 293 296 295 294
f 289 293 294 290
f 290 294 295 291
f 291 295 296 292
f 292 296 293 289
o middle_leg_left
usemtl beige
f 297 298 299 300
f 301 304 303 302
f 297 301 302 298
f 298 302 303 299
f 299 303 304 300
f 300 304 301 297
o middle_leg_right
usemtl beige
f 305 306 307 308
f 309 312 311 310
f 305 309 310 306
f 306 310 311 307
f 307 311 312 308
f 308 312 309 305
o front_leg_left
usemtl beige
f 313 314 315 316
f 317 320 319 318
f 313 317 318 314
f 314 318 319 315
f 315 319 320 316
f 316 320 317 313
o front_leg_right
usemtl beige
f 321 322 323 324
f 325 328 327 326
f 321 325 326 322
f 322 326 327 323
f 323 327 328 324
f 324 328 325 321
o back_support_left
usemtl beige
f 329 330 331 332
f 333 336 335 334
f 329 333 334 330
f 330 334 335 331
f 331 335 336 332
f 332 336 333 329
o back_support_right
usemtl beige
f 337 338 339 340
f 341 344 343 342
f 337 341 342 338
f 338 342 343 339
f 339 343 344 340
f 340 344 341 337
o left_hinge
usemtl dark
f 345 346 347 348
f 349 352 351 350
f 345 349 350 346
f 346 350 351 347
f 347 351 352 348
f 348 352 349 345
o right_hinge
usemtl dark
f 353 354 355 356
f 357 360 359 358
f 353 357 358 354
f 354 358 359 355
f 355 359 360 356
f 356 360 357 353
